<?xml version="1.0" standalone="no"?>
<!DOCTYPE svg PUBLIC "-//W3C//DTD SVG 20010904//EN"
 "http://www.w3.org/TR/2001/REC-SVG-20010904/DTD/svg10.dtd">
<svg version="1.0" xmlns="http://www.w3.org/2000/svg"
 width="512.000000pt" height="512.000000pt" viewBox="0 0 512.000000 512.000000"
 preserveAspectRatio="xMidYMid meet">

<g transform="translate(0.000000,512.000000) scale(0.100000,-0.100000)"
fill="#000000" stroke="none">
<path d="M1840 5027 c-49 -16 -133 -102 -148 -153 -16 -55 -16 -418 0 -465 6
-19 20 -46 30 -61 19 -28 19 -28 0 -55 -31 -45 -45 -101 -39 -159 l6 -54 -61
0 c-33 0 -79 -5 -102 -12 -55 -16 -138 -99 -154 -154 -8 -29 -12 -151 -12
-416 l0 -375 -122 -6 c-241 -11 -424 -70 -624 -202 -202 -134 -378 -356 -460
-580 -10 -27 -29 -65 -43 -84 l-26 -34 0 -297 0 -297 26 -34 c14 -19 33 -56
43 -84 82 -224 258 -446 460 -580 199 -131 384 -191 624 -202 l122 -6 0 -215
c0 -139 4 -229 12 -256 16 -55 99 -138 154 -154 60 -17 3288 -17 3348 0 55 16
138 99 154 154 17 59 18 3608 0 3666 -6 22 -31 62 -55 88 -51 56 -108 80 -194
80 l-58 0 -3 429 c-3 416 -4 430 -24 457 -11 15 -33 37 -48 48 -27 20 -39 21
-406 21 -367 0 -379 -1 -406 -21 -15 -11 -37 -33 -48 -48 -20 -27 -21 -41 -24
-457 l-3 -429 -83 0 -84 0 5 63 c4 54 1 69 -25 120 l-29 57 29 56 c28 57 28
57 28 257 0 127 -4 215 -12 241 -16 55 -99 138 -154 154 -56 16 -1542 15
-1594 -1z m1572 -175 c22 -22 23 -28 23 -212 0 -184 -1 -190 -23 -212 l-23
-23 -749 0 -749 0 -23 23 c-22 21 -23 30 -26 200 -3 191 2 216 48 239 20 10
183 12 762 10 l737 -2 23 -23z m1148 -372 l0 -400 -63 0 -62 0 -150 150 -150
150 -57 -57 -58 -57 92 -93 93 -93 -143 0 -142 0 0 400 0 400 320 0 320 0 0
-400z m-1166 -251 c55 -26 55 -112 0 -138 -35 -16 -1473 -16 -1508 0 -35 16
-52 61 -37 98 7 16 22 33 34 39 32 15 1477 16 1511 1z m1439 -320 c42 -19 47
-47 47 -264 l0 -205 -1680 0 -1680 0 0 205 c0 214 5 245 44 263 31 15 3236 16
3269 1z m47 -2124 l0 -1496 -25 -24 -24 -25 -1631 0 -1631 0 -25 25 -24 24 2
227 3 226 85 24 c223 64 471 230 608 408 l22 29 22 -29 c40 -54 175 -181 244
-229 38 -27 70 -49 71 -50 1 0 -5 -85 -13 -189 -8 -104 -13 -191 -11 -193 3
-2 61 24 131 59 119 58 132 62 211 66 66 3 98 0 153 -17 64 -19 70 -23 76 -53
3 -17 17 -51 31 -74 43 -73 154 -113 232 -83 15 5 63 33 105 60 l77 51 36 -36
c85 -85 184 -104 318 -63 138 43 206 108 229 219 13 63 11 77 -42 308 l-33
146 72 94 c287 379 331 863 115 1281 -266 515 -871 767 -1424 593 -198 -62
-341 -151 -496 -308 l-110 -113 -30 40 c-118 158 -376 328 -594 390 l-85 25
-3 91 -3 91 1681 0 1680 0 0 -1495z m-3480 1165 c125 -16 222 -45 335 -100
628 -308 778 -1132 299 -1639 -91 -97 -180 -163 -299 -221 -277 -135 -575
-142 -867 -21 -144 60 -308 187 -405 314 -51 66 -133 204 -133 223 0 8 23 14
63 16 34 2 69 7 77 11 11 5 24 -10 50 -55 234 -408 767 -558 1178 -332 375
206 549 639 420 1044 -84 264 -304 484 -568 568 -394 126 -826 -40 -1030 -396
-26 -45 -39 -60 -50 -55 -8 4 -43 9 -77 11 -40 2 -63 8 -63 16 0 19 82 157
132 222 153 198 396 344 638 384 41 6 82 13 90 15 35 7 131 4 210 -5z m1920 0
c125 -16 222 -45 335 -100 544 -267 747 -944 437 -1456 -26 -43 -51 -76 -57
-75 -5 2 -20 45 -31 96 l-22 94 33 83 c232 581 -192 1208 -816 1208 -302 0
-569 -147 -739 -406 l-47 -72 -37 89 -38 89 51 64 c226 284 576 429 931 386z
m-1859 -335 c257 -69 455 -273 520 -535 8 -30 14 -102 14 -160 0 -113 -13
-180 -52 -274 -88 -212 -275 -371 -503 -427 -71 -18 -249 -18 -320 0 -552 137
-745 808 -346 1207 108 108 240 177 388 204 69 12 228 4 299 -15z m1920 0
c257 -69 455 -273 520 -535 15 -59 18 -237 6 -282 l-7 -27 -45 48 c-57 61
-127 93 -220 99 -91 5 -170 -14 -317 -76 l-117 -49 -33 34 c-58 61 -122 87
-208 87 -91 0 -157 -29 -215 -96 -52 -60 -103 -168 -110 -236 -10 -89 -13 -92
-46 -39 -58 94 -95 209 -105 327 -30 358 235 694 598 760 69 12 228 4 299 -15z
m-2981 -695 l0 -240 -80 0 -80 0 0 240 0 240 80 0 80 0 0 -240z m3302 -186
c64 -33 70 -50 187 -556 93 -406 108 -483 100 -512 -12 -43 -36 -61 -116 -86
-87 -27 -143 -8 -178 61 -8 14 -30 171 -50 355 -20 181 -38 339 -41 352 -5 23
-7 23 -82 17 -42 -4 -79 -9 -81 -11 -2 -2 13 -151 33 -331 20 -181 36 -331 36
-335 0 -14 -165 -118 -187 -118 -12 0 -27 9 -33 19 -6 13 -10 180 -10 475 l0
456 -80 0 -80 0 0 -374 0 -374 -44 13 c-79 24 -175 28 -255 11 -41 -9 -77 -13
-80 -11 -3 3 9 182 25 398 28 363 32 397 56 447 13 30 39 70 57 88 28 27 40
32 79 32 26 0 55 -6 64 -14 15 -11 11 -15 -37 -35 -30 -13 -55 -27 -55 -31 0
-5 9 -30 21 -57 11 -26 25 -58 29 -70 9 -21 16 -18 265 88 306 131 374 146
457 103z m-1209 -339 c17 -22 48 -59 70 -82 39 -41 40 -44 38 -105 -1 -35 -5
-78 -9 -96 l-7 -33 -72 66 c-39 36 -95 94 -123 130 l-52 65 38 90 38 89 25
-42 c13 -23 38 -60 54 -82z"/>
<path d="M2240 4640 l0 -80 520 0 520 0 0 80 0 80 -520 0 -520 0 0 -80z"/>
<path d="M4072 4717 l-52 -52 203 -203 202 -202 53 53 c28 29 52 57 52 62 0
13 -382 395 -395 395 -6 0 -34 -24 -63 -53z"/>
<path d="M1840 3680 l0 -80 80 0 80 0 0 80 0 80 -80 0 -80 0 0 -80z"/>
<path d="M2160 3680 l0 -80 80 0 80 0 0 80 0 80 -80 0 -80 0 0 -80z"/>
<path d="M2480 3680 l0 -80 80 0 80 0 0 80 0 80 -80 0 -80 0 0 -80z"/>
<path d="M3120 3680 l0 -80 240 0 240 0 0 80 0 80 -240 0 -240 0 0 -80z"/>
<path d="M3760 3680 l0 -80 320 0 320 0 0 80 0 80 -320 0 -320 0 0 -80z"/>
</g>
</svg>
