<?xml version="1.0" standalone="no"?>
<!DOCTYPE svg PUBLIC "-//W3C//DTD SVG 20010904//EN"
 "http://www.w3.org/TR/2001/REC-SVG-20010904/DTD/svg10.dtd">
<svg version="1.0" xmlns="http://www.w3.org/2000/svg"
 width="512.000000pt" height="512.000000pt" viewBox="0 0 512.000000 512.000000"
 preserveAspectRatio="xMidYMid meet">
<metadata>
Created by potrace 1.16, written by Peter Selinger 2001-2019
</metadata>
<g transform="translate(0.000000,512.000000) scale(0.100000,-0.100000)"
fill="#000000" stroke="none">
<path d="M715 5106 c-125 -40 -217 -119 -274 -236 l-36 -75 0 -2195 0 -2195
36 -75 c47 -97 112 -162 209 -209 l75 -36 1730 -3 c1303 -2 1741 0 1775 9 153
40 278 166 319 319 9 34 11 556 9 2215 l-3 2170 -36 75 c-47 97 -112 162 -209
209 l-75 36 -1740 2 c-1388 1 -1748 -1 -1780 -11z m965 -746 l0 -520 -520 0
-520 0 0 390 c0 243 4 408 11 440 19 89 112 184 196 200 21 4 217 8 436 9
l397 1 0 -520z m2505 498 c48 -28 82 -62 107 -109 23 -44 23 -45 26 -476 l3
-433 -1201 0 -1200 0 0 520 0 520 1118 -2 c1037 -3 1119 -4 1147 -20z m133
-2820 c-3 -1505 -4 -1564 -22 -1598 -26 -49 -45 -69 -91 -94 l-40 -21 -1685 0
-1685 0 -47 28 c-31 18 -57 44 -75 75 l-28 47 -3 1563 -2 1562 1840 0 1840 0
-2 -1562z"/>
<path d="M2616 4535 c-78 -28 -136 -110 -136 -192 1 -140 129 -238 262 -199
158 46 199 244 74 354 -57 50 -128 63 -200 37z"/>
<path d="M3206 4540 c-83 -25 -138 -96 -144 -186 -7 -100 50 -182 146 -210
167 -49 315 123 243 281 -42 94 -148 144 -245 115z"/>
<path d="M3765 4531 c-82 -37 -125 -103 -125 -190 0 -64 11 -91 56 -141 72
-80 194 -87 279 -18 21 18 46 50 56 72 77 169 -100 353 -266 277z"/>
<path d="M2340 2989 c-430 -42 -797 -319 -959 -725 -53 -132 -71 -223 -78
-379 -24 -582 382 -1078 967 -1180 156 -28 383 -8 545 47 369 126 645 421 748
798 64 234 43 520 -55 747 -202 463 -670 741 -1168 692z m310 -266 c351 -67
641 -376 699 -743 4 -28 5 -49 2 -48 -3 2 -37 18 -74 36 -37 18 -111 45 -165
58 -86 23 -111 25 -227 21 -198 -7 -316 -51 -506 -189 -57 -42 -122 -85 -144
-96 -109 -54 -246 -67 -368 -33 -74 20 -205 94 -273 154 -42 37 -44 41 -38 80
43 303 238 567 516 696 186 87 359 106 578 64z m384 -928 c73 -15 231 -88 279
-128 l29 -24 -27 -79 c-57 -172 -161 -321 -299 -430 -166 -132 -351 -195 -566
-195 -281 0 -521 116 -701 339 -52 64 -138 219 -154 279 -6 22 -5 22 56 -8 56
-28 97 -42 214 -71 68 -17 252 -14 325 6 100 27 199 79 312 163 198 147 344
188 532 148z"/>
<path d="M2968 1676 c-28 -21 -39 -61 -27 -96 26 -73 137 -66 154 9 7 33 -15
85 -40 95 -27 10 -69 6 -87 -8z"/>
<path d="M2546 1584 c-62 -63 1 -161 85 -132 58 20 70 100 21 138 -35 28 -74
25 -106 -6z"/>
<path d="M1882 1417 c-47 -50 -10 -137 58 -137 69 0 107 91 57 138 -32 30 -87
29 -115 -1z"/>
<path d="M2875 1334 c-32 -35 -32 -78 0 -109 43 -44 114 -30 134 25 29 84 -74
149 -134 84z"/>
<path d="M2392 1264 c-51 -35 -46 -111 9 -140 36 -18 73 -10 99 23 57 73 -33
170 -108 117z"/>
</g>
</svg>
